<svg width="512" height="512" version="1.1" xmlns="http://www.w3.org/2000/svg" desc="Created with imagetracer.js version 1.2.6" ><path fill="rgb(0,0,0)" stroke="rgb(0,0,0)" stroke-width="1" opacity="0.7803921568627451" d="M 253.5 0 L 258 0.5 L 253.5 1 L 253.5 0 Z " /><path fill="rgb(0,0,0)" stroke="rgb(0,0,0)" stroke-width="1" opacity="0.7803921568627451" d="M 260.5 0 L 265 0.5 L 260.5 1 L 260.5 0 Z " /><path fill="rgb(0,0,0)" stroke="rgb(0,0,0)" stroke-width="1" opacity="0.7803921568627451" d="M 280.5 5 L 281.5 7 L 280.5 5 Z " /><path fill="rgb(0,0,0)" stroke="rgb(0,0,0)" stroke-width="1" opacity="0.7803921568627451" d="M 234.5 7 L 232.5 10 L 234.5 7 Z " /><path fill="rgb(0,0,0)" stroke="rgb(0,0,0)" stroke-width="1" opacity="0.7803921568627451" d="M 285.5 8 L 288.5 12 L 285.5 8 Z " /><path fill="rgb(0,0,0)" stroke="rgb(0,0,0)" stroke-width="1" opacity="0.7803921568627451" d="M 229.5 11 L 225.5 16 L 229.5 11 Z " /><path fill="rgb(0,0,0)" stroke="rgb(0,0,0)" stroke-width="1" opacity="0.7803921568627451" d="M 293.5 16 L 295.5 19 L 293.5 16 Z " /><path fill="rgb(0,0,0)" stroke="rgb(0,0,0)" stroke-width="1" opacity="0.7803921568627451" d="M 223.5 18 L 222.5 20 L 223.5 18 Z " /><path fill="rgb(0,0,0)" stroke="rgb(0,0,0)" stroke-width="1" opacity="0.7803921568627451" d="M 221.5 21 L 220.5 23 L 221.5 21 Z " /><path fill="rgb(0,0,0)" stroke="rgb(0,0,0)" stroke-width="1" opacity="0.7803921568627451" d="M 250.5 32 L 246.5 37 L 250.5 32 Z " /><path fill="rgb(0,0,0)" stroke="rgb(0,0,0)" stroke-width="1" opacity="0.7803921568627451" d="M 271.5 36 L 272.5 38 L 271.5 36 Z " /><path fill="rgb(0,0,0)" stroke="rgb(0,0,0)" stroke-width="1" opacity="0.7803921568627451" d="M 303.5 36 L 304 40.5 L 303 40.5 L 303.5 36 Z " /><path fill="rgb(0,0,0)" stroke="rgb(0,0,0)" stroke-width="1" opacity="0.7803921568627451" d="M 244.5 41 L 245 43.5 L 244 43.5 L 244.5 41 Z " /><path fill="rgb(0,0,0)" stroke="rgb(0,0,0)" stroke-width="1" opacity="0.7803921568627451" d="M 214.5 42 L 215 59.5 L 214 59.5 L 214.5 42 Z " /><path fill="rgb(0,0,0)" stroke="rgb(0,0,0)" stroke-width="1" opacity="0.7803921568627451" d="M 274.5 43 L 275 59.5 L 274 59.5 L 274.5 43 Z " /><path fill="rgb(0,0,0)" stroke="rgb(0,0,0)" stroke-width="1" opacity="0.7803921568627451" d="M 165.5 60 L 168 60.5 L 165.5 61 L 165.5 60 Z " /><path fill="rgb(0,0,0)" stroke="rgb(0,0,0)" stroke-width="1" opacity="0.7803921568627451" d="M 350.5 60 L 353 60.5 L 350.5 61 L 350.5 60 Z " /><path fill="rgb(0,0,0)" stroke="rgb(0,0,0)" stroke-width="1" opacity="0.7803921568627451" d="M 357.5 62 L 361.5 67 L 357.5 62 Z " /><path fill="rgb(0,0,0)" stroke="rgb(0,0,0)" stroke-width="1" opacity="0.7803921568627451" d="M 154.5 72 L 155 258.5 L 154 258.5 L 154.5 72 Z " /><path fill="rgb(0,0,0)" stroke="rgb(0,0,0)" stroke-width="1" opacity="0.7803921568627451" d="M 456.5 241 L 463 241.5 L 456.5 242 L 456.5 241 Z " /><path fill="rgb(0,0,0)" stroke="rgb(0,0,0)" stroke-width="1" opacity="0.7803921568627451" d="M 466.5 241 L 469 241.5 L 466.5 242 L 466.5 241 Z " /><path fill="rgb(0,0,0)" stroke="rgb(0,0,0)" stroke-width="1" opacity="0.7803921568627451" d="M 470.5 242 L 473 243.5 L 471.5 243 L 470.5 242 Z " /><path fill="rgb(0,0,0)" stroke="rgb(0,0,0)" stroke-width="1" opacity="0.7803921568627451" d="M 474.5 244 L 476.5 247 L 474.5 244 Z " /><path fill="rgb(0,0,0)" stroke="rgb(0,0,0)" stroke-width="1" opacity="0.7803921568627451" d="M 429.5 250 L 428.5 252 L 429.5 250 Z " /><path fill="rgb(0,0,0)" stroke="rgb(0,0,0)" stroke-width="1" opacity="0.7803921568627451" d="M 426.5 252 L 425.5 254 L 426.5 252 Z " /><path fill="rgb(0,0,0)" stroke="rgb(0,0,0)" stroke-width="1" opacity="0.7803921568627451" d="M 479.5 252 L 480 254.5 L 479 254.5 L 479.5 252 Z " /><path fill="rgb(0,0,0)" stroke="rgb(0,0,0)" stroke-width="1" opacity="0.7803921568627451" d="M 423.5 254 L 422.5 256 L 423.5 254 Z " /><path fill="rgb(0,0,0)" stroke="rgb(0,0,0)" stroke-width="1" opacity="0.7803921568627451" d="M 479.5 256 L 480 259.5 L 479 259.5 L 479.5 256 Z " /><path fill="rgb(0,0,0)" stroke="rgb(0,0,0)" stroke-width="1" opacity="0.7803921568627451" d="M 419.5 257 L 411.5 266 L 419.5 257 Z " /><path fill="rgb(0,0,0)" stroke="rgb(0,0,0)" stroke-width="1" opacity="0.7803921568627451" d="M 361.5 264 L 357.5 269 L 361.5 264 Z " /><path fill="rgb(0,0,0)" stroke="rgb(0,0,0)" stroke-width="1" opacity="0.7803921568627451" d="M 477.5 264 L 477 265.5 L 475.5 268 L 476 266.5 L 477.5 264 Z " /><path fill="rgb(0,0,0)" stroke="rgb(0,0,0)" stroke-width="1" opacity="0.7803921568627451" d="M 409.5 268 L 407.5 271 L 409.5 268 Z " /><path fill="rgb(0,0,0)" stroke="rgb(0,0,0)" stroke-width="1" opacity="0.7803921568627451" d="M 165.5 270 L 168 270.5 L 165.5 271 L 165.5 270 Z " /><path fill="rgb(0,0,0)" stroke="rgb(0,0,0)" stroke-width="1" opacity="0.7803921568627451" d="M 350.5 270 L 353 270.5 L 350.5 271 L 350.5 270 Z " /><path fill="rgb(0,0,0)" stroke="rgb(0,0,0)" stroke-width="1" opacity="0.7803921568627451" d="M 406.5 272 L 405.5 274 L 406.5 272 Z " /><path fill="rgb(0,0,0)" stroke="rgb(0,0,0)" stroke-width="1" opacity="0.7803921568627451" d="M 466.5 285 L 465.5 287 L 466.5 285 Z " /><path fill="rgb(0,0,0)" stroke="rgb(0,0,0)" stroke-width="1" opacity="0.7803921568627451" d="M 397.5 288 L 396.5 290 L 397.5 288 Z " /><path fill="rgb(0,0,0)" stroke="rgb(0,0,0)" stroke-width="1" opacity="0.7803921568627451" d="M 170.5 301 L 177 301.5 L 170.5 302 L 170.5 301 Z " /><path fill="rgb(0,0,0)" stroke="rgb(0,0,0)" stroke-width="1" opacity="0.7803921568627451" d="M 336.5 301 L 339 301.5 L 336.5 302 L 336.5 301 Z " /><path fill="rgb(0,0,0)" stroke="rgb(0,0,0)" stroke-width="1" opacity="0.7803921568627451" d="M 164.5 302 L 167 302.5 L 164.5 303 L 164.5 302 Z " /><path fill="rgb(0,0,0)" stroke="rgb(0,0,0)" stroke-width="1" opacity="0.7803921568627451" d="M 342.5 303 L 345.5 307 L 342.5 303 Z " /><path fill="rgb(0,0,0)" stroke="rgb(0,0,0)" stroke-width="1" opacity="0.7803921568627451" d="M 455.5 306 L 454.5 308 L 455.5 306 Z " /><path fill="rgb(0,0,0)" stroke="rgb(0,0,0)" stroke-width="1" opacity="0.7803921568627451" d="M 386.5 309 L 385.5 311 L 386.5 309 Z " /><path fill="rgb(0,0,0)" stroke="rgb(0,0,0)" stroke-width="1" opacity="0.7803921568627451" d="M 142.5 310 L 141.5 312 L 142.5 310 Z " /><path fill="rgb(0,0,0)" stroke="rgb(0,0,0)" stroke-width="1" opacity="0.7803921568627451" d="M 136.5 314 L 135.5 316 L 136.5 314 Z " /><path fill="rgb(0,0,0)" stroke="rgb(0,0,0)" stroke-width="1" opacity="0.7803921568627451" d="M 133.5 316 L 131.5 319 L 133.5 316 Z " /><path fill="rgb(0,0,0)" stroke="rgb(0,0,0)" stroke-width="1" opacity="0.7803921568627451" d="M 126.5 322 L 37.5 412 L 126.5 322 Z " /><path fill="rgb(0,0,0)" stroke="rgb(0,0,0)" stroke-width="1" opacity="0.7803921568627451" d="M 345.5 322 L 344.5 324 L 345.5 322 Z " /><path fill="rgb(0,0,0)" stroke="rgb(0,0,0)" stroke-width="1" opacity="0.7803921568627451" d="M 444.5 327 L 443.5 329 L 444.5 327 Z " /><path fill="rgb(0,0,0)" stroke="rgb(0,0,0)" stroke-width="1" opacity="0.7803921568627451" d="M 375.5 330 L 374.5 332 L 375.5 330 Z " /><path fill="rgb(0,0,0)" stroke="rgb(0,0,0)" stroke-width="1" opacity="0.7803921568627451" d="M 334.5 343 L 333.5 345 L 334.5 343 Z " /><path fill="rgb(0,0,0)" stroke="rgb(0,0,0)" stroke-width="1" opacity="0.7803921568627451" d="M 434.5 346 L 434 347.5 L 432.5 350 L 433 348.5 L 434.5 346 Z " /><path fill="rgb(0,0,0)" stroke="rgb(0,0,0)" stroke-width="1" opacity="0.7803921568627451" d="M 365.5 349 L 365 350.5 L 363.5 353 L 364 351.5 L 365.5 349 Z " /><path fill="rgb(0,0,0)" stroke="rgb(0,0,0)" stroke-width="1" opacity="0.7803921568627451" d="M 327.5 355 L 325.5 358 L 327.5 355 Z " /><path fill="rgb(0,0,0)" stroke="rgb(0,0,0)" stroke-width="1" opacity="0.7803921568627451" d="M 317.5 360 L 320 360.5 L 317.5 361 L 317.5 360 Z " /><path fill="rgb(0,0,0)" stroke="rgb(0,0,0)" stroke-width="1" opacity="0.7803921568627451" d="M 205.5 363 L 201.5 368 L 205.5 363 Z " /><path fill="rgb(0,0,0)" stroke="rgb(0,0,0)" stroke-width="1" opacity="0.7803921568627451" d="M 423.5 367 L 422.5 369 L 423.5 367 Z " /><path fill="rgb(0,0,0)" stroke="rgb(0,0,0)" stroke-width="1" opacity="0.7803921568627451" d="M 353.5 371 L 352.5 373 L 353.5 371 Z " /><path fill="rgb(0,0,0)" stroke="rgb(0,0,0)" stroke-width="1" opacity="0.7803921568627451" d="M 199.5 372 L 200 374.5 L 199 374.5 L 199.5 372 Z " /><path fill="rgb(0,0,0)" stroke="rgb(0,0,0)" stroke-width="1" opacity="0.7803921568627451" d="M 350.5 375 L 345.5 381 L 350.5 375 Z " /><path fill="rgb(0,0,0)" stroke="rgb(0,0,0)" stroke-width="1" opacity="0.7803921568627451" d="M 199.5 377 L 200 379.5 L 199 379.5 L 199.5 377 Z " /><path fill="rgb(0,0,0)" stroke="rgb(0,0,0)" stroke-width="1" opacity="0.7803921568627451" d="M 342.5 382 L 341.5 384 L 342.5 382 Z " /><path fill="rgb(0,0,0)" stroke="rgb(0,0,0)" stroke-width="1" opacity="0.7803921568627451" d="M 201.5 384 L 205.5 389 L 201.5 384 Z " /><path fill="rgb(0,0,0)" stroke="rgb(0,0,0)" stroke-width="1" opacity="0.7803921568627451" d="M 412.5 388 L 411.5 390 L 412.5 388 Z " /><path fill="rgb(0,0,0)" stroke="rgb(0,0,0)" stroke-width="1" opacity="0.7803921568627451" d="M 322.5 390 L 325 390.5 L 322.5 391 L 322.5 390 Z " /><path fill="rgb(0,0,0)" stroke="rgb(0,0,0)" stroke-width="1" opacity="0.7803921568627451" d="M 406.5 399 L 405.5 401 L 406.5 399 Z " /><path fill="rgb(0,0,0)" stroke="rgb(0,0,0)" stroke-width="1" opacity="0.7803921568627451" d="M 400.5 408 L 397.5 412 L 400.5 408 Z " /><path fill="rgb(0,0,0)" stroke="rgb(0,0,0)" stroke-width="1" opacity="0.7803921568627451" d="M 395.5 414 L 393.5 417 L 395.5 414 Z " /><path fill="rgb(0,0,0)" stroke="rgb(0,0,0)" stroke-width="1" opacity="0.7803921568627451" d="M 33.5 418 L 34 420.5 L 33 420.5 L 33.5 418 Z " /><path fill="rgb(0,0,0)" stroke="rgb(0,0,0)" stroke-width="1" opacity="0.7803921568627451" d="M 390.5 419 L 383.5 427 L 390.5 419 Z " /><path fill="rgb(0,0,0)" stroke="rgb(0,0,0)" stroke-width="1" opacity="0.7803921568627451" d="M 33.5 423 L 34 425.5 L 33 425.5 L 33.5 423 Z " /><path fill="rgb(0,0,0)" stroke="rgb(0,0,0)" stroke-width="1" opacity="0.7803921568627451" d="M 380.5 428 L 379.5 430 L 380.5 428 Z " /><path fill="rgb(0,0,0)" stroke="rgb(0,0,0)" stroke-width="1" opacity="0.7803921568627451" d="M 35.5 430 L 113.5 509 L 35.5 430 Z " /><path fill="rgb(0,0,0)" stroke="rgb(0,0,0)" stroke-width="1" opacity="0.7803921568627451" d="M 373.5 433 L 372.5 435 L 373.5 433 Z " /><path fill="rgb(0,0,0)" stroke="rgb(0,0,0)" stroke-width="1" opacity="0.7803921568627451" d="M 370.5 435 L 369.5 437 L 370.5 435 Z " /><path fill="rgb(0,0,0)" stroke="rgb(0,0,0)" stroke-width="1" opacity="0.7803921568627451" d="M 331.5 449 L 334 449.5 L 331.5 450 L 331.5 449 Z " /><path fill="rgb(0,0,0)" stroke="rgb(0,0,0)" stroke-width="1" opacity="0.7803921568627451" d="M 319.5 450 L 327 450.5 L 319.5 451 L 319.5 450 Z " /><path fill="rgb(0,0,0)" stroke="rgb(0,0,0)" stroke-width="1" opacity="0.7803921568627451" d="M 189.5 451 L 132.5 509 L 189.5 451 Z " /><path fill="rgb(0,0,0)" stroke="rgb(0,0,0)" stroke-width="1" opacity="0.7803921568627451" d="M 119.5 511 L 122 511.5 L 119.5 512 L 119.5 511 Z " /><path fill="rgb(0,0,0)" stroke="rgb(0,0,0)" stroke-width="1" opacity="0.7803921568627451" d="M 124.5 511 L 127 511.5 L 124.5 512 L 124.5 511 Z " /><path fill="rgb(0,0,0)" stroke="rgb(0,0,0)" stroke-width="1" opacity="0" d="M 0 0 L 253 0.5 Q 234.4 3.4 225 15.5 L 216 31.5 L 214 42.5 L 214 60 L 165.5 60 L 156 67.5 L 154 72.5 L 154 258.5 Q 155.8 265.7 161.5 269 L 165.5 271 L 352.5 271 Q 359 269.5 362 264.5 L 364 260.5 L 364 70.5 L 357.5 62 L 352.5 60 L 304 60 Q 307.5 21.7 285.5 8 Q 277.8 1.8 265 0.5 L 512 0 L 512 512 L 127.5 512 L 127.5 511 L 132.5 509 L 190.5 451 L 326.5 451 Q 328 448.5 333.5 450 L 346.5 447 L 369.5 437 Q 384.8 427.8 396 414.5 L 407 399.5 L 477 266.5 Q 481 262.1 480 252.5 L 474.5 244 Q 469 239 456.5 241 Q 426.5 246 411 265.5 L 396 289.5 L 356 367.5 L 343.5 382 Q 334.6 388.6 321.5 391 L 211.5 391 Q 204.3 389.2 201 383.5 L 199 375.5 L 201 368.5 L 206.5 363 L 211.5 361 L 319.5 361 L 328 355.5 L 347 320.5 L 348 310.5 L 342.5 303 L 338.5 301 L 170.5 301 L 148.5 307 L 133.5 316 L 37 411.5 L 33 418.5 L 33 425.5 L 35 430.5 L 113.5 509 L 119 511.5 L 0 512 L 0 0 Z " /><path fill="rgb(0,0,0)" stroke="rgb(0,0,0)" stroke-width="1" opacity="0" d="M 256.5 30 L 262.5 30 L 271 35.5 L 274 41.5 L 274 60 L 244 60 L 244 44.5 L 246 37.5 L 251.5 32 L 256.5 30 Z " /><path fill="rgb(0,0,0)" stroke="rgb(0,0,0)" stroke-width="1" opacity="1" d="M 258.5 0 Q 261.7 2.3 268.5 1 L 277.5 4 L 293 15.5 Q 300.1 22.9 303 34.5 L 304 60 L 349.5 60 L 356.5 62 L 362 67.5 L 364 72.5 L 364 258.5 Q 362.2 265.7 356.5 269 L 349.5 271 L 168.5 271 Q 160.7 269.8 157 264.5 L 155 260.5 L 155 70.5 L 160.5 63 L 168.5 60 L 215 60 L 215 37.5 L 216 33.5 Q 220.4 18.4 231.5 10 L 243.5 3 L 258.5 0 Z M 255 30 L 251 32 Q 246 35 244 42 L 244 60 L 275 60 L 275 44 L 273 38 L 264 30 L 255 30 Z " /><path fill="rgb(0,0,0)" stroke="rgb(0,0,0)" stroke-width="1" opacity="1" d="M 463.5 241 Q 473.7 241.8 478 248.5 L 480 255.5 L 478 263.5 L 413 387.5 L 402 406.5 L 391.5 419 Q 369.5 443 330.5 450 L 319.5 450 L 318.5 451 L 189.5 451 L 130.5 510 L 122.5 512 L 115.5 510 L 35 429.5 L 33 421.5 L 36 413.5 L 130.5 319 Q 139.7 310.7 152.5 306 L 162.5 303 L 176.5 302 L 177.5 301 L 335.5 301 Q 342.9 302.1 346 307.5 L 348 315.5 L 329 353.5 L 323.5 359 L 316.5 361 L 209.5 361 L 201 367.5 Q 198 371.5 199 379.5 Q 200.5 386 205.5 389 L 209.5 391 L 324.5 391 Q 341.5 387 351 375.5 L 365 351.5 L 403 277.5 Q 410.5 265 421.5 256 L 430.5 250 L 444.5 244 L 453.5 242 L 462.5 242 L 463.5 241 Z " /></svg>